<svg width="99" height="59" viewBox="0 0 99 59" fill="none" xmlns="http://www.w3.org/2000/svg">
<path d="M45.9088 55.2931C47.8735 57.3211 51.1265 57.3211 53.0912 55.2931L84.154 23.229C87.2269 20.057 84.9792 14.75 80.5628 14.75H18.4371C14.0208 14.75 11.7731 20.057 14.846 23.229L45.9088 55.2931Z" fill="#D4E3EC"/>
<path d="M40.785 43.445C43.7483 41.065 46.07 39.1167 47.75 37.6C49.43 36.06 50.8417 34.4617 51.985 32.805C53.1517 31.125 53.735 29.48 53.735 27.87C53.735 26.3533 53.3617 25.1633 52.615 24.3C51.8917 23.4133 50.7133 22.97 49.08 22.97C47.4933 22.97 46.2567 23.4717 45.37 24.475C44.5067 25.455 44.04 26.7733 43.97 28.43H40.89C40.9833 25.8167 41.7767 23.7983 43.27 22.375C44.7633 20.9517 46.6883 20.24 49.045 20.24C51.4483 20.24 53.35 20.905 54.75 22.235C56.1733 23.565 56.885 25.3967 56.885 27.73C56.885 29.6667 56.3017 31.5567 55.135 33.4C53.9917 35.22 52.685 36.83 51.215 38.23C49.745 39.6067 47.8667 41.2167 45.58 43.06H57.62V45.72H40.785V43.445Z" fill="#7D88AF"/>
</svg>
