<svg id="visual" viewBox="0 0 900 600" width="900" height="600" xmlns="http://www.w3.org/2000/svg" xmlns:xlink="http://www.w3.org/1999/xlink" version="1.1"><rect x="0" y="0" width="900" height="600" fill="#ffffff"></rect><defs><linearGradient id="grad1_0" x1="33.3%" y1="0%" x2="100%" y2="100%"><stop offset="20%" stop-color="#deeef8" stop-opacity="1"></stop><stop offset="80%" stop-color="#deeef8" stop-opacity="1"></stop></linearGradient></defs><defs><linearGradient id="grad1_1" x1="33.3%" y1="0%" x2="100%" y2="100%"><stop offset="20%" stop-color="#deeef8" stop-opacity="1"></stop><stop offset="80%" stop-color="#eff6fc" stop-opacity="1"></stop></linearGradient></defs><defs><linearGradient id="grad1_2" x1="33.3%" y1="0%" x2="100%" y2="100%"><stop offset="20%" stop-color="#ffffff" stop-opacity="1"></stop><stop offset="80%" stop-color="#eff6fc" stop-opacity="1"></stop></linearGradient></defs><defs><linearGradient id="grad2_0" x1="0%" y1="0%" x2="66.7%" y2="100%"><stop offset="20%" stop-color="#deeef8" stop-opacity="1"></stop><stop offset="80%" stop-color="#deeef8" stop-opacity="1"></stop></linearGradient></defs><defs><linearGradient id="grad2_1" x1="0%" y1="0%" x2="66.7%" y2="100%"><stop offset="20%" stop-color="#eff6fc" stop-opacity="1"></stop><stop offset="80%" stop-color="#deeef8" stop-opacity="1"></stop></linearGradient></defs><defs><linearGradient id="grad2_2" x1="0%" y1="0%" x2="66.7%" y2="100%"><stop offset="20%" stop-color="#eff6fc" stop-opacity="1"></stop><stop offset="80%" stop-color="#ffffff" stop-opacity="1"></stop></linearGradient></defs><g transform="translate(900, 0)"><path d="M0 432.7C-65.6 435.2 -131.2 437.6 -165.6 399.7C-200 361.8 -203.1 283.5 -242.5 242.5C-282 201.6 -357.7 198 -395.4 163.8C-433.2 129.6 -432.9 64.8 -432.7 0L0 0Z" fill="#f7fbfd"></path><path d="M0 288.4C-43.7 290.1 -87.5 291.8 -110.4 266.5C-133.3 241.2 -135.4 189 -161.7 161.7C-188 134.4 -238.5 132 -263.6 109.2C-288.8 86.4 -288.6 43.2 -288.4 0L0 0Z" fill="#e6f2fa"></path><path d="M0 144.2C-21.9 145.1 -43.7 145.9 -55.2 133.2C-66.7 120.6 -67.7 94.5 -80.8 80.8C-94 67.2 -119.2 66 -131.8 54.6C-144.4 43.2 -144.3 21.6 -144.2 0L0 0Z" fill="#deeef8"></path></g><g transform="translate(0, 600)"><path d="M0 -432.7C41.1 -383.7 82.2 -334.7 130.1 -314.1C178 -293.5 232.8 -301.2 282.1 -282.1C331.5 -263 375.5 -217.1 399.7 -165.6C423.9 -114.1 428.3 -57 432.7 0L0 0Z" fill="#f7fbfd"></path><path d="M0 -288.4C27.4 -255.8 54.8 -223.2 86.7 -209.4C118.7 -195.7 155.2 -200.8 188.1 -188.1C221 -175.4 250.4 -144.7 266.5 -110.4C282.6 -76.1 285.5 -38 288.4 0L0 0Z" fill="#e6f2fa"></path><path d="M0 -144.2C13.7 -127.9 27.4 -111.6 43.4 -104.7C59.3 -97.8 77.6 -100.4 94 -94C110.5 -87.7 125.2 -72.4 133.2 -55.2C141.3 -38 142.8 -19 144.2 0L0 0Z" fill="#deeef8"></path></g></svg>