<svg id="visual" viewBox="0 0 600 900" width="600" height="900" xmlns="http://www.w3.org/2000/svg" xmlns:xlink="http://www.w3.org/1999/xlink" version="1.1"><path d="M312 900L310.7 881.3C309.3 862.7 306.7 825.3 295.3 787.8C284 750.3 264 712.7 263.8 675.2C263.7 637.7 283.3 600.3 294.7 562.8C306 525.3 309 487.7 299.3 450.2C289.7 412.7 267.3 375.3 260.2 337.8C253 300.3 261 262.7 279.2 225.2C297.3 187.7 325.7 150.3 335.3 112.8C345 75.3 336 37.7 331.5 18.8L327 0L600 0L600 18.8C600 37.7 600 75.3 600 112.8C600 150.3 600 187.7 600 225.2C600 262.7 600 300.3 600 337.8C600 375.3 600 412.7 600 450.2C600 487.7 600 525.3 600 562.8C600 600.3 600 637.7 600 675.2C600 712.7 600 750.3 600 787.8C600 825.3 600 862.7 600 881.3L600 900Z" fill="#eff6fc" stroke-linecap="round" stroke-linejoin="miter"></path></svg>