<svg id="visual" viewBox="0 0 600 900" width="600" height="900" xmlns="http://www.w3.org/2000/svg" xmlns:xlink="http://www.w3.org/1999/xlink" version="1.1"><rect x="0" y="0" width="600" height="900" fill="#eff6fc"></rect><path d="M0 3L20 12.7C40 22.3 80 41.7 120 41.3C160 41 200 21 240 24.8C280 28.7 320 56.3 360 57.7C400 59 440 34 480 22.7C520 11.3 560 13.7 580 14.8L600 16L600 0L580 0C560 0 520 0 480 0C440 0 400 0 360 0C320 0 280 0 240 0C200 0 160 0 120 0C80 0 40 0 20 0L0 0Z" fill="#fff" stroke-linecap="round" stroke-linejoin="miter"></path></svg>